HIERARCHY
ROOT Pelvis
{
	OFFSET 0.000000 0.000000 0.000000
	CHANNELS 6 Xposition Yposition Zposition Zrotation Yrotation Xrotation 
	JOINT Left_hip
	{
		OFFSET 0.068973 -0.091024 -0.007589
		CHANNELS 3 Zrotation Yrotation Xrotation
		JOINT Left_knee
		{
			OFFSET 0.036482 -0.391037 -0.003979
			CHANNELS 3 Zrotation Yrotation Xrotation
			JOINT Left_ankle
			{
				OFFSET -0.012239 -0.415469 -0.043440
				CHANNELS 3 Zrotation Yrotation Xrotation
				JOINT Left_foot
				{
					OFFSET 0.023806 -0.058558 0.118702
					CHANNELS 3 Zrotation Yrotation Xrotation
					End Site
					{
						OFFSET 0.000000 0.000000 0.000000
					}
				}
			}
		}
	}
	JOINT Right_hip
	{
		OFFSET -0.066552 -0.090468 -0.003847
		CHANNELS 3 Zrotation Yrotation Xrotation
		JOINT Right_knee
		{
			OFFSET -0.042435 -0.398340 -0.006400
			CHANNELS 3 Zrotation Yrotation Xrotation
			JOINT Right_ankle
			{
				OFFSET 0.014931 -0.415421 -0.041327
				CHANNELS 3 Zrotation Yrotation Xrotation
				JOINT Right_foot
				{
					OFFSET -0.021472 -0.049410 0.121889
					CHANNELS 3 Zrotation Yrotation Xrotation
					End Site
					{
						OFFSET 0.000000 0.000000 0.000000
					}
				}
			}
		}
	}
	JOINT Spine1
	{
		OFFSET -0.002904 0.105700 -0.022855
		CHANNELS 3 Zrotation Yrotation Xrotation
		JOINT Spine2
		{
			OFFSET 0.004179 0.132554 -0.002501
			CHANNELS 3 Zrotation Yrotation Xrotation
			JOINT Spine3
			{
				OFFSET 0.001987 0.049603 0.025988
				CHANNELS 3 Zrotation Yrotation Xrotation
				JOINT Neck
				{
					OFFSET -0.003935 0.211336 -0.045638
					CHANNELS 3 Zrotation Yrotation Xrotation
					JOINT Head
					{
						OFFSET 0.003906 0.065991 0.051018
						CHANNELS 3 Zrotation Yrotation Xrotation
						End Site
						{
							OFFSET 0.000000 0.000000 0.000000
						}
					}
				}
				JOINT Left_collar
				{
					OFFSET 0.072882 0.117751 -0.036270
					CHANNELS 3 Zrotation Yrotation Xrotation
					JOINT Left_shoulder
					{
						OFFSET 0.082118 0.032630 -0.005771
						CHANNELS 3 Zrotation Yrotation Xrotation
						JOINT Left_elbow
						{
							OFFSET 0.263305 -0.015144 -0.028095
							CHANNELS 3 Zrotation Yrotation Xrotation
							JOINT Left_wrist
							{
								OFFSET 0.250741 0.010115 -0.000759
								CHANNELS 3 Zrotation Yrotation Xrotation
								JOINT Left_palm
								{
									OFFSET 0.080683 -0.009989 -0.013613
									CHANNELS 3 Zrotation Yrotation Xrotation
									End Site
									{
										OFFSET 0.000000 0.000000 0.000000
									}
								}
							}
						}
					}
				}
				JOINT Right_collar
				{
					OFFSET -0.074811 0.116132 -0.040385
					CHANNELS 3 Zrotation Yrotation Xrotation
					JOINT Right_shoulder
					{
						OFFSET -0.085089 0.032943 -0.007484
						CHANNELS 3 Zrotation Yrotation Xrotation
						JOINT Right_elbow
						{
							OFFSET -0.254763 -0.014219 -0.020321
							CHANNELS 3 Zrotation Yrotation Xrotation
							JOINT Right_wrist
							{
								OFFSET -0.256597 0.009233 -0.005063
								CHANNELS 3 Zrotation Yrotation Xrotation
								JOINT Right_palm
								{
									OFFSET -0.080528 -0.007219 -0.010379
									CHANNELS 3 Zrotation Yrotation Xrotation
									End Site
									{
										OFFSET 0.000000 0.000000 0.000000
									}
								}
							}
						}
					}
				}
			}
		}
	}
}
MOTION
Frames: 16
Frame Time: 0.100000
0.000000 0.000000 0.000000 -174.692160 -17.201940 -20.553396 7.861197 6.427257 9.318265 0.113116 3.506514 4.487368 0.114733 11.140385 4.740184 -0.268208 8.202006 -8.353996 -2.822689 -7.754608 16.367073 4.821941 -1.393989 -5.347758 -3.697380 -7.330054 -2.327128 5.118017 -0.505637 7.442757 3.295332 1.913614 4.417475 -0.097568 -2.046104 8.392853 -0.273828 -0.512669 3.124665 -1.363903 8.660796 19.376938 -5.508186 9.788198 13.327673 -22.794267 0.018402 8.255025 -50.043444 -5.895908 8.773624 0.264481 -32.361806 20.833579 -10.507672 -0.127021 -3.112538 -9.497427 -4.398549 -10.830021 24.070663 4.596263 8.016550 48.998219 10.928851 9.700342 -7.968951 20.786388 -1.132675 5.028803 -1.144245 -2.035929 13.815729 7.857140 -7.072270 
-0.004364 -0.004857 0.019095 -174.815930 -17.976224 -19.604054 8.435816 7.392388 13.358714 -1.196278 2.764707 -2.455984 -0.520626 10.537661 5.318125 0.118922 7.782867 -7.249774 -3.192509 -7.394472 16.381445 4.717356 -1.329005 -5.756231 -2.877995 -7.464250 -1.747746 4.657964 0.100831 7.188280 2.387190 1.240337 1.648910 0.297595 -2.476404 7.961084 -0.225200 -1.075079 2.228710 -0.922422 6.583300 18.969544 -5.242579 6.858166 13.330328 -22.425710 0.033565 8.419382 -49.656722 -6.511554 8.885528 0.131438 -32.106973 20.853051 -10.283232 -0.314863 -2.657390 -9.605976 -4.385638 -11.295085 24.443706 4.231229 7.218202 49.557637 10.755309 9.998562 -8.389043 20.879159 -0.974058 5.146397 -1.121358 -1.850674 13.653635 7.813278 -7.016540 
-0.013168 -0.007701 0.034677 -175.133842 -19.300204 -19.238897 8.111722 8.146492 16.127061 -1.125404 3.147021 -6.187708 -0.379993 10.996945 5.121882 0.327624 7.464385 -6.569498 -3.312842 -7.013946 16.445389 4.264510 -1.274290 -5.346687 -2.150353 -7.383269 -1.634877 4.066749 0.464089 6.793855 2.486261 0.717456 0.346650 0.457657 -2.682095 7.691801 -0.349998 -1.287258 1.936034 -1.023600 4.768320 17.718699 -4.992455 4.756309 12.588866 -22.105447 0.091044 8.329438 -49.752263 -6.803819 8.715169 0.685623 -32.747383 20.050865 -9.901571 -0.466334 -2.730674 -9.512015 -4.240010 -11.155266 24.394928 4.112230 6.718739 50.587239 10.091002 10.462841 -8.375104 21.980222 -0.650932 5.370114 -0.969601 -1.916031 13.312631 7.731611 -6.899763 
-0.022281 -0.009945 0.047376 -175.293151 -20.502559 -18.820964 7.936460 8.335424 17.026412 -1.736544 3.557076 -6.726744 0.136741 11.334250 3.899892 0.165713 7.315013 -5.914979 -3.869536 -6.670503 16.857559 4.112735 -0.614253 -6.044576 -0.809861 -7.213068 -1.101991 2.708403 0.994079 6.212484 2.133471 0.584453 -0.526465 0.799550 -2.962260 7.523370 -0.240452 -1.541394 1.887497 -1.018842 2.500140 16.469272 -4.547820 2.328934 12.088552 -21.861319 0.558075 8.486763 -50.336177 -6.797722 8.736079 0.828691 -33.262379 20.040891 -9.580071 -0.822756 -3.175196 -9.428570 -4.141905 -10.777027 24.643762 3.879370 6.349846 50.938190 9.326433 10.835038 -7.791084 21.466280 0.211433 5.505372 -1.085593 -1.352106 13.183796 7.742056 -6.914387 
-0.037696 -0.012332 0.058234 -175.731175 -21.378855 -18.382097 7.327378 8.546859 16.005867 -1.857934 4.088469 -4.199665 1.423157 11.540795 1.981652 -1.030137 7.374744 -5.436393 -4.251298 -6.338978 16.687246 3.545575 -0.245886 -5.972109 -0.090618 -7.024746 -0.251128 2.020303 0.749077 5.785988 2.285031 0.440255 0.123893 0.894218 -3.379818 7.100464 -0.409068 -1.820904 1.892127 -0.988743 -1.029304 14.766471 -3.517084 -0.633854 10.559611 -21.886973 0.610124 8.631583 -50.858029 -6.682478 8.568547 0.624439 -32.192414 20.392167 -10.037388 -0.711235 -3.054322 -9.410917 -4.044019 -10.616086 24.277558 3.712149 5.917387 51.500397 8.026189 10.481572 -7.679295 20.101327 0.246274 5.776179 -1.414449 -1.197935 13.033677 7.867136 -6.890538 
-0.056496 -0.014666 0.065410 -176.083506 -23.507520 -17.614802 6.879140 9.301351 16.277854 -2.385122 4.540591 -4.823120 2.622062 11.853451 1.264979 -2.131136 7.662254 -4.684247 -4.564293 -5.770546 14.733373 3.056911 0.134232 -4.219345 0.365451 -6.539883 0.360405 1.848478 0.651328 5.292514 2.498070 -0.007597 1.355037 0.776247 -3.605693 7.536757 -0.682811 -1.966031 1.858788 -0.907293 -2.968840 13.451068 -2.532490 -2.326269 8.402215 -22.041628 -0.687115 8.802920 -50.194224 -6.791492 8.058435 0.522823 -28.822159 19.811726 -10.097344 0.117793 -1.704160 -9.812462 -4.173356 -11.537962 23.618993 4.354446 6.097312 51.627923 7.089339 10.073017 -7.738966 19.887969 0.107011 5.926782 -1.646743 -1.038865 13.326539 8.150357 -7.384971 
-0.074470 -0.015472 0.063974 -176.767110 -26.696729 -16.645550 6.695296 10.168616 15.391465 -2.467019 5.293296 -4.143184 4.129333 12.595491 0.459321 -3.254406 8.239331 -4.067715 -3.921596 -4.971682 9.999358 2.413923 0.597052 1.444656 0.426087 -5.782452 0.172309 2.269087 0.306933 4.342982 1.893957 -0.753189 4.085518 0.833789 -3.832493 8.039086 -0.601792 -2.411646 2.108331 -0.158724 -3.240171 11.979038 -1.499604 -2.707713 6.215562 -21.961472 -2.278611 8.925949 -48.930150 -7.051572 7.306045 0.689641 -26.216046 18.665200 -9.273112 1.073103 0.078392 -10.192264 -4.404328 -12.760132 22.916532 5.157815 6.077965 51.831895 6.833917 9.894876 -8.632514 21.724312 -0.571017 5.619607 -1.614500 -1.355229 13.681656 8.409450 -7.915016 
-0.085993 -0.014027 0.059164 -177.483185 -30.304703 -15.559872 6.691657 10.875544 13.756091 -2.200543 5.695372 -2.342914 6.114044 14.009417 -0.087124 -4.408648 8.818439 -4.363092 -2.529166 -3.151069 0.600161 2.080191 0.398151 15.212989 -0.279671 -5.897654 -0.511315 3.332945 0.117437 2.504990 0.146951 -1.932116 7.425419 0.930030 -3.230893 7.531541 -0.609746 -2.838041 2.369202 1.317894 -2.429840 11.038782 -0.738408 -2.396795 5.570240 -21.722569 -3.293772 8.824540 -46.841457 -7.773073 6.585700 0.696224 -24.008325 17.308916 -8.229912 2.166915 2.169097 -10.234695 -4.596953 -14.260613 22.849973 5.208286 5.840090 52.717525 6.198585 10.755132 -9.276372 23.634345 -0.646276 5.567718 -1.546623 -1.604014 13.499191 8.392141 -8.209157 
-0.083665 -0.017571 0.068673 -178.674742 -32.238293 -15.003812 7.569867 11.372906 15.289216 -1.758026 5.234784 -3.302041 6.830948 15.023686 0.955853 -5.217188 8.663067 -4.793780 -1.250607 -1.773117 -4.945517 2.707060 -1.014654 23.366389 -2.229841 -6.656993 -1.507222 5.584848 -0.195256 2.668479 -0.791786 -3.144536 7.933330 0.770717 -3.104559 7.079973 -0.986524 -3.389278 2.022483 2.536275 -2.130779 10.845471 0.063109 -2.631083 5.342588 -22.470023 -4.436822 8.583725 -44.242105 -8.926134 5.911092 0.746198 -18.680864 16.210281 -8.458895 3.730080 5.274032 -10.083597 -4.766814 -15.682008 23.835451 4.859359 5.878434 53.748954 4.659347 11.180430 -8.385725 20.475240 0.329260 6.786740 -2.098830 -1.211342 13.054270 8.292612 -8.190000 
-0.071732 -0.019141 0.090119 179.969314 -32.099710 -13.207923 9.276715 11.872651 19.362900 -2.310242 4.535077 -9.948203 5.633332 14.608599 1.988301 -5.264753 7.568591 -3.703512 -0.863280 -1.804292 -6.511735 3.735906 -2.713414 14.141691 -1.717702 -6.329782 -1.149098 4.659882 -0.296548 4.844174 -0.765642 -3.976669 5.939386 0.623903 -3.555050 6.523672 -0.738282 -3.748618 1.325941 2.406515 -3.082949 9.068895 2.007062 -4.010006 2.883309 -21.657496 -5.064796 8.212921 -44.411853 -10.457093 5.542167 0.549497 -17.070670 16.057471 -10.907427 3.507169 5.457370 -9.633580 -4.584623 -15.037674 23.295351 4.022617 6.201450 55.280621 2.351842 10.475681 -7.258461 15.978002 2.169691 9.085845 -2.538205 -1.075030 12.636046 8.210451 -8.092848 
-0.050573 -0.018097 0.114785 179.287568 -30.407846 -12.944313 10.859492 11.682168 21.714604 -2.207550 4.074175 -10.415822 4.851582 14.242326 0.600043 -6.076148 6.731840 -2.850566 -0.569013 -3.119095 -8.155652 4.700719 -6.031959 6.963769 -0.926662 -7.202275 0.114600 3.207322 0.278109 6.395733 -0.893403 -4.194987 5.796210 0.676814 -3.605880 6.096492 -0.171696 -3.946772 0.823378 1.971019 -4.885402 6.090383 3.748509 -6.029632 0.867318 -20.858219 -5.746961 8.007982 -43.793351 -12.466759 5.441594 0.830147 -22.371713 15.787216 -10.102836 2.002748 4.117660 -8.685272 -4.544561 -12.820437 23.504866 3.969053 6.343280 54.941102 0.427652 9.312520 -6.414638 12.758212 2.384188 9.503159 -2.826308 -0.351487 12.023671 8.243441 -7.509871 
-0.019008 -0.017417 0.144848 -179.999437 -28.998812 -14.316962 11.852581 11.538529 23.193385 -1.470467 3.739667 -6.060665 4.560306 14.123384 -0.712585 -7.299927 6.014692 -3.392105 -0.449902 -4.863666 -9.927493 4.719547 -10.633518 7.693716 -2.357146 -8.518348 -0.559174 4.113000 -0.500590 7.416916 -0.521149 -4.129409 6.275206 0.401882 -2.863946 5.849704 -0.034723 -3.463287 0.568658 1.084196 -7.236148 4.545225 4.682072 -7.718012 -0.784016 -19.577622 -6.510882 8.055311 -43.865659 -13.431926 5.783331 0.568404 -29.373419 17.578203 -9.910281 0.717234 2.052289 -7.183898 -3.992393 -10.429282 22.731287 5.511729 6.839920 54.466344 -0.065926 8.239160 -5.703582 11.348177 3.514490 9.869126 -3.072168 0.563814 10.438605 7.909192 -6.417841 
0.029470 -0.014261 0.187396 -178.409551 -25.956546 -15.757199 12.854603 10.487040 24.737605 -0.556003 2.139243 -1.190944 3.079067 13.433787 -0.708459 -7.042220 5.273305 -4.827162 -0.840026 -5.816949 -7.283902 4.025005 -11.633563 7.620882 -3.672244 -9.594228 0.447971 4.441465 -1.176256 7.467322 -0.317727 -3.976457 4.439894 0.369954 -2.764271 5.873404 0.038472 -3.431402 0.250842 0.190896 -9.352533 4.503735 4.451244 -8.624280 -1.610336 -18.958917 -5.358736 8.480031 -44.815044 -12.315239 6.574724 -0.338423 -34.396372 20.245845 -9.776882 -0.381762 -0.456705 -6.736546 -3.722486 -9.195104 22.026556 5.549100 6.505632 53.022430 -0.017506 7.804522 -6.040803 13.333782 3.861714 9.102906 -2.883744 0.284484 9.854712 7.683091 -5.654677 
0.089269 -0.021534 0.225313 -177.722452 -24.569187 -17.867910 15.424871 8.652548 22.590520 0.767753 0.612706 11.924006 -1.560836 12.811583 4.904918 -3.708186 4.418841 -9.654272 -0.272042 -5.419331 -3.087037 4.084176 -10.393734 11.891605 -8.195695 -9.804856 -2.457888 7.580770 -4.105498 7.995550 0.680194 -3.415804 3.708051 0.729548 -2.548035 7.011286 0.438576 -2.928852 -0.202379 0.354727 -11.088383 3.608042 4.530669 -9.367642 -3.374019 -20.210012 -3.893105 8.751119 -46.347381 -9.148612 7.199428 1.116194 -33.819739 19.371069 -9.587429 -0.593509 -2.865438 -6.392559 -3.078656 -8.908096 22.285341 7.210586 6.246633 51.126910 2.272163 7.420107 -6.832762 15.000144 3.231439 7.514960 -2.875984 -0.953964 8.733954 6.829948 -4.591040 
0.139113 -0.031632 0.256109 -176.018065 -26.537210 -21.070508 16.547054 7.116548 13.039520 2.222071 3.653695 35.134032 -3.776498 13.882280 13.917548 -0.514051 5.057852 -14.732008 -0.074355 -7.329400 7.456821 5.435346 -6.557768 4.869671 -11.280918 -7.515549 -2.903545 8.204114 -6.722794 8.269484 1.766893 -0.510645 4.098192 0.527681 -3.260010 8.092932 0.805842 -2.038496 -0.221548 -0.665015 -13.747400 4.882131 5.337251 -9.314830 -3.933950 -20.789115 -2.941204 9.068957 -48.905427 -4.710010 7.434555 1.144243 -28.931794 19.561383 -10.593542 0.546838 -4.403151 -7.738524 -2.835936 -9.457363 21.350108 9.698739 5.862878 50.055955 6.363054 7.433056 -6.110160 19.650207 4.928204 5.887550 -2.678363 -1.986986 9.660960 6.634887 -4.496369 
0.174041 -0.042441 0.288595 -172.720293 -30.560077 -23.832546 13.519198 5.666961 2.870324 -1.056082 5.223487 48.873786 -1.309133 10.445406 8.554733 -2.919024 6.991385 -14.190072 -1.844431 -8.241785 16.114717 5.388053 -1.630404 -2.359363 -8.728830 -5.645439 -1.524427 4.988146 -5.928629 6.740115 2.190146 2.926484 4.719729 0.613790 -3.347449 8.660233 0.663278 -0.630111 0.404944 -0.296023 -15.739083 6.619096 5.580077 -9.805976 -3.697891 -21.332607 -1.783343 9.903163 -51.123735 -0.182026 7.842366 -1.011068 -27.917222 23.800130 -10.454780 0.774659 -4.842294 -10.077856 -3.437266 -10.769750 20.056572 11.407205 5.578786 48.935300 9.599335 7.770916 -5.635551 28.126513 6.789268 3.694600 -1.972667 -2.571604 12.424917 7.798706 -5.357302 
